<?xml version="1.0" standalone="no"?>
<!DOCTYPE svg PUBLIC "-//W3C//DTD SVG 20010904//EN"
 "http://www.w3.org/TR/2001/REC-SVG-20010904/DTD/svg10.dtd">
<svg version="1.0" xmlns="http://www.w3.org/2000/svg"
 width="666.000000pt" height="666.000000pt" viewBox="0 0 666.000000 666.000000"
 preserveAspectRatio="xMidYMid meet">
<metadata>
Created by potrace 1.14, written by Peter Selinger 2001-2017
</metadata>
<g transform="translate(0.000000,666.000000) scale(0.100000,-0.100000)"
fill="#000000" stroke="none">
<path d="M3245 5100 c-22 -4 -75 -25 -117 -45 -72 -34 -79 -41 -118 -106 -49
-83 -73 -149 -90 -249 -14 -82 -18 -317 -7 -421 7 -66 70 -267 107 -339 32
-62 27 -115 -19 -196 -11 -19 -75 -104 -76 -101 -1 1 -40 65 -86 142 -46 77
-88 147 -94 156 -5 9 -20 35 -32 57 -13 22 -27 44 -33 47 -6 4 -17 21 -26 38
-35 75 -55 107 -64 107 -6 0 -10 6 -10 13 0 7 -29 57 -65 111 -36 54 -65 101
-65 104 0 3 -14 27 -31 54 -28 43 -35 49 -57 43 -38 -9 -112 -66 -112 -85 0
-9 46 -89 103 -178 132 -208 190 -302 256 -415 29 -51 81 -134 114 -185 33
-51 57 -95 55 -98 -3 -2 -58 -22 -123 -44 -77 -26 -133 -40 -164 -39 -63 2
-142 -10 -209 -30 -134 -40 -248 -181 -300 -371 -28 -99 -31 -117 -38 -240 -6
-84 -13 -122 -39 -190 -33 -86 -48 -156 -48 -220 3 -198 10 -287 26 -317 24
-46 65 -157 87 -236 22 -81 28 -90 101 -137 48 -31 74 -39 165 -54 60 -9 118
-19 129 -21 11 -2 39 -4 62 -4 36 -1 44 -5 48 -23 5 -23 13 -101 14 -145 l1
-23 1040 0 1039 0 40 59 c22 32 48 79 57 102 22 60 72 184 97 241 24 57 36
159 24 211 -8 29 -5 48 10 85 14 35 17 58 12 92 -4 25 -10 65 -14 89 -3 24
-14 69 -24 100 -14 44 -17 87 -15 207 1 84 -2 174 -7 200 -5 27 -12 63 -15 79
-30 176 -163 346 -339 430 -51 25 -103 45 -115 45 -12 0 -40 11 -63 24 -23 13
-67 32 -97 41 -30 9 -81 29 -113 43 -62 27 -65 36 -30 90 8 13 34 60 57 105
40 76 157 284 339 606 42 74 74 138 71 142 -9 15 -95 69 -118 75 -20 5 -28 -2
-53 -43 -16 -26 -39 -68 -52 -93 -12 -25 -33 -63 -47 -85 -13 -22 -27 -47 -31
-55 -4 -8 -16 -31 -28 -50 -12 -19 -40 -69 -62 -110 -169 -312 -254 -460 -263
-460 -4 0 -11 12 -15 28 -5 24 -25 72 -57 138 -15 33 -4 98 37 208 69 188 89
322 88 576 0 147 -22 269 -62 347 -22 44 -38 60 -86 89 -143 83 -160 88 -290
90 -66 2 -138 -1 -160 -6z"/>
</g>
</svg>
