<?xml version="1.0" standalone="no"?>
<!DOCTYPE svg PUBLIC "-//W3C//DTD SVG 20010904//EN"
 "http://www.w3.org/TR/2001/REC-SVG-20010904/DTD/svg10.dtd">
<svg version="1.0" xmlns="http://www.w3.org/2000/svg"
 width="1080.000000pt" height="1080.000000pt" viewBox="0 0 1080.000000 1080.000000"
 preserveAspectRatio="xMidYMid meet">
<metadata>
Created by potrace 1.14, written by Peter Selinger 2001-2017
</metadata>
<g transform="translate(0.000000,1080.000000) scale(0.100000,-0.100000)"
fill="#000000" stroke="none">
<path d="M2198 10793 c7 -3 16 -2 19 1 4 3 -2 6 -13 5 -11 0 -14 -3 -6 -6z"/>
<path d="M2313 10793 c15 -2 37 -2 50 0 12 2 0 4 -28 4 -27 0 -38 -2 -22 -4z"/>
<path d="M2418 10793 c6 -2 18 -2 25 0 6 3 1 5 -13 5 -14 0 -19 -2 -12 -5z"/>
<path d="M2568 10793 c18 -2 45 -2 60 0 15 2 0 4 -33 4 -33 0 -45 -2 -27 -4z"/>
<path d="M2671 10795 c6 -5 352 -17 448 -15 36 1 72 5 80 10 10 6 -88 10 -258
10 -151 0 -272 -2 -270 -5z"/>
<path d="M3443 10794 c7 -7 280 -18 347 -14 25 2 54 3 65 2 11 0 38 0 60 0
110 1 235 0 280 -1 59 -2 307 -1 385 1 91 2 207 -7 219 -18 5 -5 29 -5 -1151
-7 -548 -1 -1000 -5 -1004 -9 -9 -9 25 -10 1166 -9 487 1 898 -2 914 -5 67
-14 -7 -24 -169 -23 -243 1 -267 0 -260 -11 3 -5 27 -10 53 -11 44 -1 42 -2
-28 -15 -41 -8 -85 -12 -97 -9 -13 3 -23 1 -23 -5 0 -5 20 -10 45 -10 25 0 45
-4 45 -10 0 -5 -17 -10 -37 -10 -47 0 -83 -9 -83 -21 0 -15 172 -10 205 6 27
12 28 13 7 14 -13 1 -21 5 -17 11 7 12 417 13 465 1 l35 -9 -35 -2 c-34 -2
-34 -2 15 -16 28 -7 77 -15 110 -16 l60 -2 -52 -3 c-37 -3 -53 -8 -53 -18 0
-10 13 -14 43 -14 23 0 58 -5 77 -10 34 -9 34 -9 -20 -11 -53 -2 -53 -2 -20
-11 19 -4 57 -11 85 -14 62 -8 71 -15 19 -16 -43 -1 -103 -16 -70 -18 37 -2
-5 -31 -45 -31 -28 0 -39 4 -39 15 0 8 6 15 13 15 8 0 7 4 -3 10 -8 5 -32 10
-52 10 -38 0 -54 22 -25 33 6 3 -12 6 -40 6 -45 1 -53 4 -53 20 0 13 -9 20
-32 24 -43 8 -327 8 -351 1 -18 -6 -18 -7 -1 -25 17 -19 15 -19 -57 -18 -41 0
-67 3 -59 6 8 3 26 10 40 15 43 16 2 28 -100 28 -88 0 -145 -14 -112 -27 6 -2
12 -9 12 -14 0 -5 -590 -10 -1477 -11 -1047 -1 -1427 -4 -1303 -11 186 -9 232
-11 320 -9 30 1 102 1 160 1 58 -1 172 0 254 0 82 1 151 -1 154 -4 3 -3 11 0
17 5 8 7 29 7 63 0 28 -6 79 -9 114 -7 35 2 74 1 88 -3 30 -9 -39 -11 -655
-12 -253 0 -552 -4 -665 -7 l-205 -6 267 -5 c195 -4 270 -8 280 -17 10 -10
-54 -13 -316 -13 -215 0 -325 -3 -321 -10 4 -6 134 -10 357 -10 193 0 349 -2
346 -5 -9 -10 -205 -15 -615 -18 -216 -1 -395 -6 -399 -10 -5 -5 524 -12 839
-10 9 0 17 -4 17 -7 0 -11 -215 -19 -380 -14 -141 4 -554 -5 -547 -12 2 -2
262 -7 578 -10 315 -3 576 -7 578 -10 2 -2 -106 -5 -240 -5 -134 -1 -359 -3
-499 -5 -140 -1 -349 -3 -465 -4 -135 -1 -200 -5 -181 -10 15 -5 119 -9 229
-10 186 0 218 -3 206 -15 -3 -2 -116 -5 -252 -6 -136 0 -249 -4 -252 -9 -6 -9
95 -20 193 -20 41 0 73 -2 70 -5 -9 -9 -396 -10 -405 -1 -4 5 -2 11 5 13 27
10 9 23 -33 23 l-45 0 0 -229 c0 -174 3 -231 13 -234 10 -4 10 -6 0 -6 -10 -1
-13 -718 -13 -3548 0 -3128 2 -3551 15 -3577 19 -36 19 -55 0 -62 -13 -5 -15
-161 -15 -1315 l0 -1309 5400 0 5400 0 0 5400 0 5400 -952 0 c-523 0 -949 -3
-946 -6 3 -3 109 -11 234 -18 l229 -13 -220 -3 c-121 -1 -247 -6 -280 -10 -58
-7 -56 -7 36 -9 53 0 179 -4 280 -8 238 -10 156 -20 -191 -23 -362 -4 -226
-18 200 -21 l355 -3 -250 -8 c-137 -5 -313 -8 -390 -8 -77 0 -156 -4 -175 -9
-24 -6 25 -9 160 -11 107 -1 204 -5 215 -10 12 -5 -58 -9 -177 -9 -120 -1
-199 -5 -203 -11 -4 -6 26 -11 82 -11 48 -1 273 -5 498 -8 l410 -7 -361 -2
c-331 -2 -550 -9 -541 -19 2 -2 33 -6 68 -9 35 -3 68 -10 74 -15 5 -5 -64 -10
-180 -11 l-190 -2 135 -8 c74 -5 202 -10 284 -13 81 -2 151 -6 154 -9 3 -3
-78 -7 -179 -7 -101 -1 -193 -3 -204 -4 -11 -1 -36 -3 -55 -5 -58 -5 93 -19
200 -19 52 1 109 0 125 -1 26 -1 27 -3 10 -10 -11 -5 -99 -9 -195 -10 -222 -3
-168 -18 70 -21 190 -2 162 -16 -35 -18 -66 -1 -138 -5 -160 -10 -29 -6 5 -9
123 -10 228 -1 214 -29 -18 -33 l-105 -1 110 -7 c61 -4 180 -9 265 -11 l155
-3 -185 -7 c-102 -5 -193 -9 -202 -9 -10 -1 -18 -5 -18 -11 0 -5 24 -9 53 -9
28 0 59 -5 67 -10 10 -7 -7 -10 -57 -10 -100 0 -101 -17 -1 -26 46 -5 74 -9
63 -11 -11 -1 -56 -5 -100 -9 l-80 -8 55 -8 c30 -5 84 -13 120 -17 65 -8 65
-8 -40 -11 -138 -3 -87 -17 69 -19 63 0 111 -4 108 -7 -4 -4 -55 -12 -114 -19
l-108 -12 90 -2 c109 -2 142 -15 64 -27 -45 -6 -50 -9 -29 -15 14 -4 54 -8 90
-9 l65 -3 -57 -6 c-86 -9 -93 -26 -16 -37 60 -8 61 -8 21 -12 -75 -6 -43 -31
42 -33 44 -1 40 -4 -20 -14 -33 -6 -37 -9 -20 -15 11 -5 41 -9 68 -9 26 -1 47
-5 47 -11 0 -5 -21 -10 -46 -10 -27 0 -43 -4 -39 -10 3 -5 29 -10 56 -10 64 0
62 -22 -2 -31 l-44 -6 50 -2 c28 -2 61 -6 75 -10 l25 -7 -24 -6 c-40 -11 -12
-28 47 -28 l57 -1 -38 -14 c-52 -18 -56 -25 -16 -26 19 -1 45 -5 59 -9 22 -7
21 -8 -12 -9 -75 -2 -34 -29 47 -32 35 -1 32 -3 -25 -13 -72 -13 -76 -10 45
-35 l40 -8 -48 -2 c-59 -1 -54 -20 6 -22 23 -1 56 -4 72 -8 53 -12 -76 -24
-173 -15 -75 6 -83 8 -57 16 60 19 59 22 -10 28 l-70 5 35 17 35 18 -50 1
c-51 1 -118 16 -81 18 32 2 -2 31 -36 31 -33 0 -29 20 5 21 18 1 17 3 -8 11
-16 5 -46 13 -65 18 l-35 8 33 1 c36 1 45 21 8 21 -12 0 -38 6 -57 12 l-34 13
35 6 c32 5 29 6 -28 14 -34 4 -65 12 -68 16 -3 5 0 9 7 9 22 0 -4 18 -31 22
-17 2 -24 9 -22 19 4 24 -24 28 -213 31 l-170 2 140 3 c155 3 198 9 174 24 -7
5 -99 9 -204 10 -220 2 -206 15 20 19 214 3 128 17 -158 26 -125 3 -226 8
-225 10 2 2 95 4 206 5 111 1 205 6 208 10 3 5 -59 9 -138 10 -79 1 -152 2
-163 3 -11 1 -31 3 -45 4 -20 2 -22 4 -10 12 8 5 89 11 180 12 l165 1 -165 7
c-192 8 -257 24 -145 34 117 12 115 13 -22 15 -75 0 -133 5 -133 10 0 6 20 8
45 6 25 -2 47 1 50 6 4 5 25 10 48 10 40 2 40 2 -13 9 -69 10 -395 10 -435 1
-26 -7 -23 -9 30 -16 95 -12 100 -24 10 -25 -55 0 -75 -3 -65 -10 8 -5 38 -10
65 -10 39 -1 46 -3 32 -11 -27 -16 -216 -13 -233 4 -4 4 16 7 44 7 28 0 54 5
57 10 4 6 -15 10 -50 10 -72 0 -71 22 1 31 l49 6 -42 1 c-81 3 -105 32 -26 32
54 0 53 8 -2 15 -46 6 -55 13 -35 26 37 23 -19 30 -250 28 -351 -3 -764 0
-758 6 2 3 223 5 489 6 266 0 511 4 544 9 51 6 54 8 20 9 -50 2 -85 11 -85 22
0 5 12 9 27 9 22 0 24 3 15 13 -9 8 -46 12 -120 11 -332 -5 -432 -5 -571 0
-84 2 -156 7 -159 10 -3 3 94 6 216 6 141 0 222 4 222 10 0 6 -53 10 -137 10
-126 1 -136 2 -118 16 12 9 37 14 65 13 25 -1 77 0 115 1 55 2 64 4 40 10 -16
4 -169 9 -340 10 l-310 3 313 12 c172 7 316 16 319 19 4 3 -142 7 -323 7 -187
1 -312 5 -289 9 22 4 152 8 289 9 153 0 254 5 260 11 5 5 8 10 6 10 -3 0 -241
3 -530 7 -289 3 -527 7 -529 9 -2 2 151 4 341 4 190 0 359 3 377 6 79 16 -2
24 -245 24 -169 0 -264 4 -264 10 0 6 15 10 33 11 17 0 25 3 17 6 -8 2 -24 9
-35 13 -11 5 -38 11 -60 13 -35 3 -33 4 13 5 28 1 52 6 52 11 0 12 -29 23 -41
15 -14 -8 -59 4 -59 16 0 12 196 12 225 0 18 -7 19 -8 3 -15 -10 -4 -15 -11
-12 -17 7 -11 604 -8 644 3 22 6 -287 13 -445 10 -33 -1 -76 3 -95 8 l-35 9
45 3 c52 3 69 4 330 9 l195 3 -145 8 c-80 4 -289 7 -465 8 -394 0 -365 -1
-365 10 0 5 12 14 28 19 26 10 26 10 -11 11 -33 1 -38 -2 -32 -18 4 -15 -1
-20 -26 -25 -42 -8 -76 2 -82 25 -3 11 -14 19 -25 19 -15 0 -19 -5 -15 -20 4
-16 0 -20 -17 -20 -13 0 -24 8 -27 20 -5 19 -14 20 -172 20 -164 -1 -166 -1
-143 -20 12 -10 18 -21 13 -25 -6 -3 -8 -12 -5 -19 4 -9 18 -12 48 -9 37 5 44
2 59 -20 15 -23 15 -28 2 -40 -8 -8 -12 -17 -9 -20 3 -3 -3 -10 -14 -16 -11
-6 -21 -8 -24 -6 -3 3 -41 6 -86 7 -97 2 -111 18 -17 18 62 0 65 1 55 19 -7
14 -7 22 1 27 8 4 7 9 -2 15 -22 14 -29 11 -39 -16 -12 -32 -19 -31 -58 3 -33
30 -42 68 -20 90 9 9 -219 12 -1027 12 -571 0 -1036 -3 -1032 -6z m1643 -26
c4 -5 -53 -8 -127 -7 -74 0 -126 3 -117 7 24 9 234 9 244 0z m229 2 c4 -6 -9
-10 -32 -9 -30 0 -34 2 -18 9 27 12 43 12 50 0z m140 0 c4 -6 -6 -10 -22 -10
-22 0 -25 2 -13 10 19 12 27 12 35 0z m418 -7 c-7 -2 -19 -2 -25 0 -7 3 -2 5
12 5 14 0 19 -2 13 -5z m-807 -33 c19 0 34 -4 34 -10 0 -11 -79 -14 -105 -4
-13 5 -14 8 -3 15 7 5 19 7 26 4 8 -3 29 -5 48 -5z m254 0 c0 -5 -17 -10 -37
-9 -31 0 -34 2 -18 9 28 12 55 12 55 0z m860 0 c0 -5 -4 -10 -10 -10 -5 0 -10
5 -10 10 0 6 5 10 10 10 6 0 10 -4 10 -10z m-1302 -7 c-16 -2 -40 -2 -55 0
-16 2 -3 4 27 4 30 0 43 -2 28 -4z m1152 -3 c0 -5 -12 -10 -26 -10 -14 0 -23
4 -19 10 3 6 15 10 26 10 10 0 19 -4 19 -10z m-893 -34 c4 -3 1 -6 -5 -6 -16
0 -15 -27 1 -33 19 -7 4 -16 -34 -21 -38 -5 -65 6 -55 22 3 6 -3 17 -15 25
-15 11 -17 16 -7 20 16 7 107 1 115 -7z m-210 -2 c-8 -8 -486 -8 -494 0 -4 3
108 6 247 6 139 0 251 -3 247 -6z m61 -1 c-10 -2 -26 -2 -35 0 -10 3 -2 5 17
5 19 0 27 -2 18 -5z m1172 -2 c-19 -4 -78 -4 -130 -1 l-95 7 130 0 c72 0 114
-2 95 -6z m-1220 -41 c0 -13 -30 -13 -50 0 -11 7 -7 10 18 10 17 0 32 -4 32
-10z m1305 0 c3 -5 -1 -10 -9 -10 -9 0 -16 5 -16 10 0 6 4 10 9 10 6 0 13 -4
16 -10z m2980 0 c-3 -5 -19 -10 -35 -10 -16 0 -32 5 -35 10 -4 6 10 10 35 10
25 0 39 -4 35 -10z m195 -6 c0 -2 -24 -4 -52 -3 -33 0 -46 3 -35 8 18 7 87 3
87 -5z m-4271 -40 c2 -2 -22 -4 -55 -3 -42 0 -53 3 -39 9 18 8 83 3 94 -6z
m139 -1 c-15 -2 -42 -2 -60 0 -18 2 -6 4 27 4 33 0 48 -2 33 -4z m495 0 c-47
-5 -48 -5 -33 -34 10 -18 7 -19 -80 -19 -53 0 -90 4 -90 10 0 6 20 11 45 11
57 2 62 3 70 11 13 13 -37 18 -190 21 -82 1 -44 3 85 3 129 0 216 -1 193 -3z
m210 0 c-29 -2 -78 -2 -110 0 -32 2 -8 3 52 3 61 0 87 -1 58 -3z m3785 0 c-10
-2 -26 -2 -35 0 -10 3 -2 5 17 5 19 0 27 -2 18 -5z m185 0 c-7 -2 -19 -2 -25
0 -7 3 -2 5 12 5 14 0 19 -2 13 -5z m-5403 -38 c11 -13 4 -15 -56 -15 -53 1
-65 3 -51 11 10 6 25 8 33 5 11 -4 36 1 60 13 1 1 7 -6 14 -14z m1314 -17 c18
-25 21 -74 6 -83 -26 -16 -3 -25 67 -25 84 0 88 -6 16 -26 l-48 -13 38 0 c50
-1 39 -17 -18 -25 -44 -7 -62 -25 -27 -27 22 -2 -35 -16 -68 -18 -41 -1 -51
11 -41 47 8 26 6 34 -8 41 -26 14 -38 0 -37 -42 2 -43 -4 -46 -84 -47 -79 -1
-90 -1 -140 7 -45 7 -45 7 -12 12 36 7 44 24 12 29 -30 5 -24 22 8 23 27 2 27
2 2 6 -14 3 -31 10 -38 16 -11 8 -10 12 3 20 15 8 15 10 0 21 -14 10 -13 14
15 34 25 19 31 20 36 8 3 -8 19 -18 35 -21 28 -6 41 -25 17 -25 -6 0 -8 -3 -4
-7 9 -10 136 -11 136 -2 0 10 -49 21 -63 14 -7 -4 -3 1 8 9 11 9 25 14 32 12
18 -7 44 4 37 15 -3 5 -18 9 -35 9 -16 0 -29 4 -29 9 0 15 30 22 49 11 14 -7
23 -4 39 15 28 32 75 33 96 3z m661 12 c4 -6 -6 -10 -22 -10 -22 0 -25 2 -13
10 19 12 27 12 35 0z m2665 0 c0 -6 -36 -9 -92 -8 l-93 2 80 6 c44 3 86 7 93
8 6 1 12 -2 12 -8z m350 -6 c0 -2 -7 -4 -15 -4 -8 0 -15 4 -15 10 0 5 7 7 15
4 8 -4 15 -8 15 -10z m-4267 -1 c-7 -2 -21 -2 -30 0 -10 3 -4 5 12 5 17 0 24
-2 18 -5z m4070 0 c-7 -2 -19 -2 -25 0 -7 3 -2 5 12 5 14 0 19 -2 13 -5z
m-6368 -43 c-43 -5 -310 -1 -304 5 2 2 65 6 139 10 74 4 137 8 138 10 2 2 18
-2 35 -8 l32 -12 -40 -5z m1075 15 c11 -13 -2 -15 -111 -14 -76 0 -116 4 -104
9 11 4 54 6 96 3 51 -4 78 -2 83 6 10 15 21 14 36 -4z m306 0 c28 -14 25 -15
-61 -14 l-90 1 55 13 c30 7 58 13 61 14 4 0 20 -6 35 -14z m-1697 -11 c2 -2
-27 -4 -65 -3 -49 1 -62 3 -44 9 23 7 99 3 109 -6z m690 1 c2 -3 -72 -5 -165
-4 -93 1 -158 4 -145 8 27 7 302 4 310 -4z m298 1 c4 -3 -59 -5 -138 -5 -92 1
-131 4 -109 9 39 9 238 5 247 -4z m121 -3 c-16 -2 -40 -2 -55 0 -16 2 -3 4 27
4 30 0 43 -2 28 -4z m685 0 c-7 -2 -21 -2 -30 0 -10 3 -4 5 12 5 17 0 24 -2
18 -5z m1160 0 c-7 -2 -19 -2 -25 0 -7 3 -2 5 12 5 14 0 19 -2 13 -5z m-3956
-40 c2 -6 -21 -10 -57 -10 -50 -1 -59 2 -50 13 13 15 102 13 107 -3z m111 8
c9 -5 2 -10 -24 -14 -41 -7 -64 1 -43 14 18 11 50 11 67 0z m297 -2 c10 -15
-1 -22 -24 -14 -12 3 -19 11 -16 16 8 12 32 11 40 -2z m109 -10 c-7 -11 -44
-12 -44 -1 0 15 11 20 30 15 11 -3 17 -9 14 -14z m66 11 c0 -5 -8 -10 -17 -10
-15 0 -16 2 -3 10 19 12 20 12 20 0z m80 -5 c11 -13 8 -15 -19 -15 -30 0 -39
9 -24 23 11 11 30 8 43 -8z m198 5 c20 0 31 -4 27 -10 -7 -11 -153 -14 -179
-4 -32 12 -5 20 56 18 35 -2 78 -3 96 -4z m452 -5 c-5 -9 -40 -10 -140 -4 -31
2 -29 3 15 9 68 10 131 7 125 -5z m193 1 c16 -12 13 -14 -25 -14 -51 -1 -72
10 -38 19 37 10 43 10 63 -5z m348 -9 c-13 -13 -26 -3 -16 12 3 6 11 8 17 5 6
-4 6 -10 -1 -17z m841 9 c14 -1 24 -4 21 -8 -6 -11 -103 -10 -103 1 0 13 22
21 40 13 8 -3 27 -6 42 -6z m852 -6 c-21 -8 -37 -3 -29 10 3 4 15 6 27 2 21
-5 21 -6 2 -12z m1771 11 c8 -14 -13 -24 -33 -16 -14 5 -14 7 -2 15 19 12 27
12 35 1z m-5105 -11 c0 -5 -9 -10 -19 -10 -11 0 -23 5 -26 10 -4 6 5 10 19 10
14 0 26 -4 26 -10z m120 0 c0 -5 -4 -10 -10 -10 -5 0 -10 5 -10 10 0 6 5 10
10 10 6 0 10 -4 10 -10z m670 0 c-8 -5 -19 -10 -25 -10 -5 0 -3 5 5 10 8 5 20
10 25 10 6 0 3 -5 -5 -10z m758 3 c-10 -2 -26 -2 -35 0 -10 3 -2 5 17 5 19 0
27 -2 18 -5z m187 -3 c8 -13 -25 -13 -45 0 -12 8 -9 10 12 10 15 0 30 -4 33
-10z m373 -1 c-12 -8 -298 -3 -306 5 -2 3 68 4 157 4 89 -1 156 -5 149 -9z
m2932 1 c0 -5 -9 -10 -20 -10 -11 0 -20 5 -20 10 0 6 9 10 20 10 11 0 20 -4
20 -10z m-3688 -30 c177 0 319 -3 316 -6 -4 -3 -145 -7 -315 -8 -213 -1 -314
-6 -328 -14 l-20 -11 20 -1 c19 0 18 -2 -4 -19 -13 -10 -21 -23 -18 -28 4 -6
0 -16 -8 -23 -8 -7 -13 -16 -10 -20 3 -4 -2 -13 -10 -20 -8 -7 -12 -16 -9 -21
3 -5 2 -15 -3 -21 -8 -13 -9 -18 -12 -38 0 -5 -8 -10 -16 -10 -8 0 -12 -6 -9
-14 6 -16 -31 -40 -47 -31 -5 4 -7 15 -4 26 4 11 2 19 -4 19 -15 0 -14 30 2
31 6 0 2 5 -11 11 -13 6 -21 17 -18 24 3 7 -2 18 -10 25 -11 9 -12 14 -3 19
26 17 -5 27 -82 28 -45 1 -84 4 -87 7 -3 3 36 5 86 5 86 0 124 12 86 27 -16 6
-16 7 0 18 15 12 15 13 -1 20 -10 5 -94 9 -188 11 -309 6 -303 9 30 14 182 3
336 4 343 3 8 -2 158 -3 334 -3z m-1564 -7 c-10 -2 -28 -2 -40 0 -13 2 -5 4
17 4 22 1 32 -1 23 -4z m190 0 c-15 -2 -42 -2 -60 0 -18 2 -6 4 27 4 33 0 48
-2 33 -4z m300 0 c-21 -2 -57 -2 -80 0 -24 2 -7 4 37 4 44 0 63 -2 43 -4z
m1560 0 c-27 -2 -69 -2 -95 0 -27 2 -5 3 47 3 52 0 74 -1 48 -3z m220 0 c-27
-2 -69 -2 -95 0 -27 2 -5 3 47 3 52 0 74 -1 48 -3z m265 0 c-7 -2 -21 -2 -30
0 -10 3 -4 5 12 5 17 0 24 -2 18 -5z m144 -6 c-42 -7 -62 -6 -70 2 -8 8 7 11
59 10 l69 -2 -58 -10z m663 3 c-8 -5 -24 -10 -35 -10 -11 0 -27 5 -35 10 -11
7 -1 10 35 10 36 0 46 -3 35 -10z m1798 3 c-10 -2 -28 -2 -40 0 -13 2 -5 4 17
4 22 1 32 -1 23 -4z m-4290 -48 c3 -3 -26 -5 -64 -5 -47 0 -64 3 -54 10 14 9
108 5 118 -5z m102 5 c0 -5 -17 -10 -37 -10 -28 0 -34 3 -23 10 20 13 60 13
60 0z m520 1 c0 -5 -6 -11 -12 -13 -19 -6 -178 3 -178 11 0 3 43 7 95 8 52 1
95 -2 95 -6z m65 -1 c4 -6 -5 -10 -19 -10 -14 0 -26 5 -26 10 0 6 9 10 19 10
11 0 23 -4 26 -10z m105 -6 c0 -2 -7 -4 -15 -4 -8 0 -15 4 -15 10 0 5 7 7 15
4 8 -4 15 -8 15 -10z m110 0 c0 -2 -9 -4 -21 -4 -11 0 -18 4 -14 10 5 8 35 3
35 -6z m35 6 c3 -5 1 -10 -4 -10 -6 0 -11 5 -11 10 0 6 2 10 4 10 3 0 8 -4 11
-10z m144 -6 c2 -2 -21 -4 -53 -4 -37 0 -55 4 -51 10 6 10 92 4 104 -6z m581
6 c0 -5 -10 -10 -22 -9 -22 0 -22 1 -3 9 11 5 21 9 23 9 1 1 2 -3 2 -9z m125
0 c-11 -5 -31 -9 -45 -9 -23 0 -23 1 -5 9 11 5 31 9 45 9 23 0 23 -1 5 -9z
m897 -5 c-2 -10 -66 -14 -90 -6 -11 3 -11 5 0 13 17 11 94 6 90 -7z m2353 6
c83 -10 -164 -17 -390 -11 -134 3 -180 7 -140 11 75 7 462 7 530 0z m-5208 -7
c-3 -3 -12 -4 -19 -1 -8 3 -5 6 6 6 11 1 17 -2 13 -5z m4516 -1 c-13 -2 -33
-2 -45 0 -13 2 -3 4 22 4 25 0 35 -2 23 -4z m60 0 c-7 -2 -19 -2 -25 0 -7 3
-2 5 12 5 14 0 19 -2 13 -5z m-3379 -32 c187 -1 337 -3 335 -5 -5 -5 -879 -10
-929 -6 -67 6 58 17 160 14 52 -2 248 -3 434 -3z m-1721 -8 c-7 -2 -19 -2 -25
0 -7 3 -2 5 12 5 14 0 19 -2 13 -5z m630 0 c-40 -2 -106 -2 -145 0 -40 1 -8 3
72 3 80 0 112 -2 73 -3z m1780 0 c-29 -2 -77 -2 -105 0 -29 2 -6 3 52 3 58 0
81 -1 53 -3z m1055 0 c-32 -2 -86 -2 -120 0 -35 2 -9 3 57 3 66 0 94 -1 63 -3z
m1350 0 c-10 -2 -28 -2 -40 0 -13 2 -5 4 17 4 22 1 32 -1 23 -4z m2850 0 c-10
-2 -28 -2 -40 0 -13 2 -5 4 17 4 22 1 32 -1 23 -4z m-8628 -43 c0 -13 -100
-13 -120 0 -11 7 5 10 53 10 38 0 67 -4 67 -10z m257 -4 c3 -3 -47 -5 -111 -5
-72 0 -115 3 -111 9 6 10 213 6 222 -4z m1473 4 c0 -5 -12 -10 -26 -10 -14 0
-23 4 -19 10 3 6 15 10 26 10 10 0 19 -4 19 -10z m80 0 c0 -5 -7 -10 -15 -10
-8 0 -15 5 -15 10 0 6 7 10 15 10 8 0 15 -4 15 -10z m420 0 c0 -5 -22 -10 -49
-10 -28 0 -53 5 -56 10 -4 6 15 10 49 10 31 0 56 -4 56 -10z m105 0 c4 -6 -7
-10 -25 -10 -18 0 -29 4 -25 10 3 6 15 10 25 10 10 0 22 -4 25 -10z m120 0 c4
-6 -5 -10 -20 -10 -15 0 -24 4 -20 10 3 6 12 10 20 10 8 0 17 -4 20 -10z m130
0 c4 -6 -5 -10 -19 -10 -14 0 -26 5 -26 10 0 6 9 10 19 10 11 0 23 -4 26 -10z
m155 -6 c0 -2 -18 -4 -40 -4 -22 0 -40 3 -40 8 0 4 18 6 40 4 22 -2 40 -6 40
-8z m3655 6 c-4 -6 -55 -9 -128 -8 l-122 2 100 6 c55 3 113 7 128 8 17 1 26
-2 22 -8z m155 0 c0 -6 -27 -10 -61 -10 -37 0 -58 4 -54 10 3 6 31 10 61 10
30 0 54 -4 54 -10z m1750 -6 c0 -2 -17 -4 -37 -3 -33 1 -35 2 -13 8 23 7 50 4
50 -5z m-8376 -36 c11 0 1 -4 -24 -7 -25 -3 -56 -4 -70 -2 -23 4 -23 5 -5 12
11 5 33 6 49 4 16 -3 38 -6 50 -7z m71 2 c-3 -5 -15 -10 -26 -10 -10 0 -19 5
-19 10 0 6 12 10 26 10 14 0 23 -4 19 -10z m70 0 c-3 -5 -15 -10 -26 -10 -10
0 -19 5 -19 10 0 6 12 10 26 10 14 0 23 -4 19 -10z m-312 -7 c-24 -2 -62 -2
-85 0 -24 2 -5 4 42 4 47 0 66 -2 43 -4z m2020 0 c-29 -2 -77 -2 -105 0 -29 2
-6 3 52 3 58 0 81 -1 53 -3z m420 0 c-13 -2 -33 -2 -45 0 -13 2 -3 4 22 4 25
0 35 -2 23 -4z m105 0 c-10 -2 -28 -2 -40 0 -13 2 -5 4 17 4 22 1 32 -1 23 -4z
m150 0 c-10 -2 -28 -2 -40 0 -13 2 -5 4 17 4 22 1 32 -1 23 -4z m145 0 c-7 -2
-19 -2 -25 0 -7 3 -2 5 12 5 14 0 19 -2 13 -5z m140 0 c-7 -2 -19 -2 -25 0 -7
3 -2 5 12 5 14 0 19 -2 13 -5z m114 1 c-3 -3 -12 -4 -19 -1 -8 3 -5 6 6 6 11
1 17 -2 13 -5z m3526 -1 c-7 -2 -19 -2 -25 0 -7 3 -2 5 12 5 14 0 19 -2 13 -5z
m185 0 c-27 -2 -69 -2 -95 0 -27 2 -5 3 47 3 52 0 74 -1 48 -3z m1719 0 c-20
-2 -52 -2 -70 0 -17 2 0 4 38 4 39 0 53 -2 32 -4z m-8862 -34 c4 -6 19 -7 35
-4 16 3 31 2 35 -4 4 -7 -14 -11 -54 -11 -48 0 -61 3 -61 15 0 17 35 21 45 4z
m3177 -6 c8 -11 -9 -13 -96 -13 -88 0 -106 3 -106 15 0 13 16 15 95 13 65 -1
99 -6 107 -15z m-276 -5 c4 -5 -25 -8 -64 -8 -40 0 -72 3 -72 8 0 4 29 7 64 7
35 0 68 -3 72 -7z m4244 2 c11 -7 6 -10 -20 -10 -26 0 -31 3 -20 10 8 5 17 10
20 10 3 0 12 -5 20 -10z m660 0 c0 -5 -9 -10 -20 -10 -11 0 -20 5 -20 10 0 6
9 10 20 10 11 0 20 -4 20 -10z m-7592 -7 c-10 -2 -26 -2 -35 0 -10 3 -2 5 17
5 19 0 27 -2 18 -5z m2105 0 c-7 -2 -19 -2 -25 0 -7 3 -2 5 12 5 14 0 19 -2
13 -5z m6515 0 c-10 -2 -26 -2 -35 0 -10 3 -2 5 17 5 19 0 27 -2 18 -5z
m-5668 -18 c5 -3 7 -12 3 -20 -8 -21 -178 -22 -186 -1 -3 8 -2 16 4 18 17 6
171 8 179 3z m-285 -15 c-28 -12 -67 -12 -60 0 3 6 23 10 43 9 30 0 33 -2 17
-9z m4288 3 c-13 -2 -35 -2 -50 0 -16 2 -5 4 22 4 28 0 40 -2 28 -4z m-4933
-49 c0 -2 -12 -4 -27 -4 -21 0 -24 3 -14 9 13 8 41 5 41 -5z m250 1 c-7 -8
-16 -12 -21 -9 -13 8 -1 24 18 24 13 0 13 -3 3 -15z m290 -1 c0 -2 -11 -4 -25
-4 -14 0 -25 4 -25 9 0 4 11 6 25 3 14 -2 25 -6 25 -8z m390 1 c0 -8 -5 -15
-11 -15 -8 0 -8 -4 -1 -13 8 -10 6 -16 -9 -26 -20 -12 -20 -13 -4 -25 17 -12
17 -13 0 -20 -13 -5 -15 -9 -6 -20 10 -12 1 -15 -48 -21 -68 -8 -81 -3 -74 25
3 11 0 20 -6 20 -5 0 -8 7 -5 15 4 8 1 22 -5 29 -9 11 -9 15 1 19 10 4 11 7 1
18 -24 25 -13 29 77 29 73 0 90 -3 90 -15z m4489 6 c22 -14 -71 -23 -151 -14
-68 7 -70 8 -33 14 61 10 168 10 184 0z m-5382 -7 c-3 -3 -12 -4 -19 -1 -8 3
-5 6 6 6 11 1 17 -2 13 -5z m566 -1 c-7 -2 -19 -2 -25 0 -7 3 -2 5 12 5 14 0
19 -2 13 -5z m-1033 -33 c22 0 20 -3 -13 -18 -21 -9 -38 -21 -37 -26 1 -5 -9
-14 -22 -21 -13 -6 -22 -16 -21 -22 1 -6 -11 -13 -27 -17 -19 -3 -30 -12 -30
-22 0 -9 -9 -18 -20 -21 -11 -3 -20 -11 -20 -19 0 -24 -37 -34 -119 -34 -81 0
-95 6 -66 30 8 7 13 16 10 20 -2 4 7 12 20 18 14 7 25 18 25 25 0 8 11 19 25
25 14 6 24 17 23 24 -2 8 9 14 25 16 19 2 27 9 27 22 0 26 9 27 220 20z m5854
-1 c32 -1 25 -4 -29 -11 -82 -11 -75 -11 -145 -1 l-55 8 50 6 c28 4 70 5 94 3
24 -2 62 -5 85 -5z m-7716 -10 c-24 -13 -23 -29 2 -29 11 0 20 -4 20 -10 0 -5
-22 -10 -50 -10 -27 0 -50 5 -50 10 0 6 8 10 18 10 14 1 13 4 -7 20 l-23 20
53 0 c42 -1 50 -3 37 -11z m2304 4 c-40 -2 -103 -2 -140 0 -37 2 -4 3 73 3 77
0 107 -2 67 -3z m161 0 c-7 -2 -19 -2 -25 0 -7 3 -2 5 12 5 14 0 19 -2 13 -5z
m435 0 c-21 -2 -57 -2 -80 0 -24 2 -7 4 37 4 44 0 63 -2 43 -4z m409 1 c-3 -3
-12 -4 -19 -1 -8 3 -5 6 6 6 11 1 17 -2 13 -5z m490 0 c-3 -3 -12 -4 -19 -1
-8 3 -5 6 6 6 11 1 17 -2 13 -5z m4041 -1 c-10 -2 -26 -2 -35 0 -10 3 -2 5 17
5 19 0 27 -2 18 -5z m-5553 -42 c22 -7 0 -9 -85 -9 -63 0 -99 3 -80 7 61 11
134 12 165 2z m1490 -1 c3 -5 -1 -10 -10 -10 -9 0 -13 5 -10 10 3 6 8 10 10
10 2 0 7 -4 10 -10z m3880 0 c3 -5 -3 -10 -14 -10 -32 0 -25 -18 12 -28 l32
-8 -43 -7 c-49 -8 -91 6 -53 18 36 11 13 25 -47 27 l-57 1 45 7 c70 11 118 11
125 0z m-4822 -7 c-7 -2 -19 -2 -25 0 -7 3 -2 5 12 5 14 0 19 -2 13 -5z m932
-33 c4 -6 -6 -10 -22 -9 -25 0 -26 1 -8 9 11 5 21 9 22 9 1 1 5 -3 8 -9z
m-1602 -7 c-7 -2 -19 -2 -25 0 -7 3 -2 5 12 5 14 0 19 -2 13 -5z m95 0 c-16
-2 -40 -2 -55 0 -16 2 -3 4 27 4 30 0 43 -2 28 -4z m665 0 c-7 -2 -19 -2 -25
0 -7 3 -2 5 12 5 14 0 19 -2 13 -5z m4610 0 c-7 -2 -19 -2 -25 0 -7 3 -2 5 12
5 14 0 19 -2 13 -5z m1525 0 c-10 -2 -26 -2 -35 0 -10 3 -2 5 17 5 19 0 27 -2
18 -5z m-7779 -32 c15 -9 10 -11 -53 -26 -23 -5 -26 -9 -16 -15 10 -6 2 -12
-32 -21 -28 -8 -44 -17 -41 -25 2 -6 -10 -16 -27 -23 -17 -6 -29 -14 -26 -19
3 -5 -10 -15 -29 -22 -20 -8 -31 -18 -28 -26 3 -9 -10 -14 -44 -19 -26 -3 -64
-9 -83 -13 -32 -6 -31 -7 25 -12 33 -4 54 -7 47 -8 -6 -1 -22 -13 -34 -27 -12
-14 -32 -25 -45 -25 -34 0 -28 20 10 27 l32 7 -30 8 c-16 4 -40 6 -52 3 -28
-7 -40 11 -12 18 15 4 20 11 15 22 -3 9 0 18 9 21 8 4 15 13 15 20 0 8 8 18
18 21 9 4 27 17 39 30 14 15 34 23 55 23 23 0 29 3 19 9 -19 12 -7 27 29 35
17 3 29 10 26 15 -4 5 6 14 21 19 35 13 173 15 192 3z m1847 -1 c9 0 12 -4 9
-10 -7 -12 -65 -14 -65 -2 0 15 13 23 28 17 7 -3 20 -5 28 -5z m4515 0 c6 0 7
-4 4 -10 -8 -13 -52 -13 -59 -1 -7 11 14 21 32 15 8 -2 18 -4 23 -4z m-5491
-4 c0 -3 -4 -8 -10 -11 -5 -3 -10 -1 -10 4 0 6 5 11 10 11 6 0 10 -2 10 -4z
m990 -44 c0 -5 -16 -9 -35 -10 -19 -1 -35 3 -35 8 0 6 16 10 35 10 19 0 35 -4
35 -8z m4500 -2 c0 -5 -9 -10 -19 -10 -11 0 -23 5 -26 10 -4 6 5 10 19 10 14
0 26 -4 26 -10z m-6029 -51 c-16 -13 -31 -17 -45 -12 -12 4 -41 8 -66 9 -54 2
-53 1 -45 14 3 6 45 10 93 10 l87 -1 -24 -20z m6042 4 c-7 -2 -21 -2 -30 0
-10 3 -4 5 12 5 17 0 24 -2 18 -5z m-6076 -49 c-23 -12 -26 -18 -16 -30 10
-12 5 -14 -25 -14 -22 0 -35 4 -31 10 3 6 13 10 21 10 33 0 -13 29 -52 33 -21
2 -1 4 46 5 82 1 84 1 57 -14z m6081 9 c-10 -2 -26 -2 -35 0 -10 3 -2 5 17 5
19 0 27 -2 18 -5z m2 -43 c11 -7 7 -10 -18 -10 -20 0 -31 4 -27 10 8 13 26 13
45 0z m-6132 -48 c4 -14 -34 -16 -42 -3 -6 10 13 21 28 17 6 -1 12 -8 14 -14z
m6109 2 c-3 -3 -12 -4 -19 -1 -8 3 -5 6 6 6 11 1 17 -2 13 -5z m-6119 -36 c-3
-7 -13 -15 -24 -17 -16 -3 -17 -1 -5 13 16 19 34 21 29 4z m-698 -8 c0 -5 -8
-10 -17 -10 -15 0 -16 2 -3 10 19 12 20 12 20 0z m80 -39 c0 -13 -27 -21 -47
-14 -15 6 -15 7 3 14 27 11 44 11 44 0z m577 -7 c-3 -3 -12 -4 -19 -1 -8 3 -5
6 6 6 11 1 17 -2 13 -5z m-607 -39 c0 -8 -9 -15 -20 -15 -22 0 -27 15 -7 23
21 9 27 7 27 -8z m8476 -3 c15 -9 -2 -11 -78 -12 -53 0 -104 3 -114 7 -16 6
-16 7 2 15 26 11 167 3 190 -10z m-10 -32 c14 0 23 -4 20 -9 -11 -17 -71 -21
-116 -7 l-45 14 45 4 c25 2 51 3 58 1 8 -2 25 -3 38 -3z m64 -50 c17 -5 -5 -8
-65 -8 -59 0 -83 2 -70 8 25 11 102 11 135 0z m-8917 -7 c-7 -2 -19 -2 -25 0
-7 3 -2 5 12 5 14 0 19 -2 13 -5z m300 -40 c-7 -2 -21 -2 -30 0 -10 3 -4 5 12
5 17 0 24 -2 18 -5z m8655 0 c-27 -2 -69 -2 -95 0 -27 2 -5 3 47 3 52 0 74 -1
48 -3z m-8808 -41 c0 -5 -3 -12 -7 -16 -5 -4 -8 -13 -8 -19 0 -14 -80 -31
-103 -22 -14 5 -14 7 -2 15 8 6 29 10 45 10 26 1 28 2 11 11 -15 9 -16 13 -5
20 18 11 69 12 69 1z m610 -2 c17 -5 -4 -8 -63 -9 -57 -1 -86 3 -82 9 7 12
109 12 145 0z m-527 -7 c-7 -2 -19 -2 -25 0 -7 3 -2 5 12 5 14 0 19 -2 13 -5z
m8795 0 c-21 -2 -57 -2 -80 0 -24 2 -7 4 37 4 44 0 63 -2 43 -4z m-8928 -83
c0 -5 -9 -10 -21 -10 -11 0 -17 5 -14 10 3 6 13 10 21 10 8 0 14 -4 14 -10z
m-35 -40 c-3 -5 -11 -10 -16 -10 -6 0 -7 5 -4 10 3 6 11 10 16 10 6 0 7 -4 4
-10z m-68 -86 c-3 -3 -12 -4 -19 -1 -8 3 -5 6 6 6 11 1 17 -2 13 -5z m-59 -51
c-10 -2 -26 -2 -35 0 -10 3 -2 5 17 5 19 0 27 -2 18 -5z m4159 -187 c4 -3 -15
-6 -40 -6 -26 0 -47 3 -47 8 0 8 78 7 87 -2z m-482 -76 c3 -5 -1 -10 -9 -10
-9 0 -16 5 -16 10 0 6 4 10 9 10 6 0 13 -4 16 -10z m789 -41 c-3 -5 -10 -7
-15 -3 -5 3 -7 10 -3 15 3 5 10 7 15 3 5 -3 7 -10 3 -15z m-349 -35 c14 -6 13
-10 -10 -30 -15 -13 -32 -21 -36 -18 -16 9 -10 42 9 47 9 3 18 5 19 6 1 0 9
-2 18 -5z m58 -91 c-3 -7 -9 -13 -15 -13 -5 0 -8 -10 -6 -22 2 -17 -4 -23 -29
-30 -18 -5 -34 -17 -38 -28 -4 -11 -10 -20 -15 -20 -5 0 -11 -8 -13 -17 -4
-14 -5 -13 -6 4 0 12 6 26 15 31 14 8 14 10 0 21 -9 8 -16 25 -16 40 0 18 3
22 9 12 7 -11 13 -10 35 4 14 10 26 21 26 26 0 5 6 9 14 9 8 0 17 8 21 18 7
16 8 15 15 -3 4 -11 5 -26 3 -32z m47 -3 c0 -5 -4 -10 -10 -10 -5 0 -10 5 -10
10 0 6 5 10 10 10 6 0 10 -4 10 -10z m-68 -122 c3 -26 36 -37 49 -16 6 9 9 9
9 1 0 -7 -7 -16 -16 -21 -11 -6 -15 -17 -11 -31 7 -29 -4 -26 -41 9 -18 17
-36 30 -42 30 -17 0 -11 28 8 39 27 16 40 13 44 -11z m-82 -63 c0 -8 -4 -15
-10 -15 -5 0 -10 7 -10 15 0 8 5 15 10 15 6 0 10 -7 10 -15z m205 6 c3 -5 1
-12 -5 -16 -5 -3 -10 1 -10 9 0 18 6 21 15 7z m-55 -61 c0 -5 -4 -10 -10 -10
-5 0 -10 5 -10 10 0 6 5 10 10 10 6 0 10 -4 10 -10z m-131 -39 c12 -8 12 -12
2 -25 -16 -19 -31 -12 -31 15 0 21 7 23 29 10z m-462 -23 c-3 -8 -6 -5 -6 6
-1 11 2 17 5 13 3 -3 4 -12 1 -19z m673 12 c0 -5 -5 -10 -11 -10 -5 0 -7 5 -4
10 3 6 8 10 11 10 2 0 4 -4 4 -10z m110 -30 c0 -19 -28 -10 -33 10 -4 17 -2
18 14 9 10 -5 19 -14 19 -19z m-40 -26 c0 -2 -15 -4 -32 -3 -27 0 -29 2 -13 8
18 8 45 4 45 -5z m1127 -146 c46 -20 83 -59 83 -89 0 -30 -45 -80 -82 -91 -33
-9 -146 -9 -195 1 -49 9 -73 30 -73 63 0 26 14 40 75 78 77 49 138 61 192 38z
m-1088 -75 c71 -35 77 -64 16 -75 -74 -13 -263 -9 -300 6 -94 39 12 109 154
101 55 -3 87 -11 130 -32z m2586 -223 c3 -5 1 -10 -4 -10 -6 0 -11 5 -11 10 0
6 2 10 4 10 3 0 8 -4 11 -10z m-2378 -72 c-3 -8 -6 -5 -6 6 -1 11 2 17 5 13 3
-3 4 -12 1 -19z m-177 -119 c0 -6 -4 -7 -10 -4 -5 3 -10 11 -10 16 0 6 5 7 10
4 6 -3 10 -11 10 -16z m96 -36 c-10 -10 -19 5 -10 18 6 11 8 11 12 0 2 -7 1
-15 -2 -18z m-153 -9 c-4 -12 -8 -13 -14 -3 -9 15 -2 32 11 24 5 -3 6 -13 3
-21z m-33 -74 c0 -5 -9 -10 -20 -10 -11 0 -20 5 -20 10 0 6 9 10 20 10 11 0
20 -4 20 -10z m-3805 -530 c17 -19 17 -21 1 -39 -23 -25 -61 -31 -86 -14 -26
18 -25 38 2 57 30 22 61 20 83 -4z m-202 -4 c24 -19 21 -30 -14 -60 -33 -28
-58 -33 -77 -14 -17 17 -15 32 9 62 22 28 54 33 82 12z m6114 -128 c-3 -7 -5
-2 -5 12 0 14 2 19 5 13 2 -7 2 -19 0 -25z m-6047 -13 c16 -19 10 -26 -64 -79
-69 -49 -81 -53 -109 -32 -16 13 -14 18 36 70 45 48 58 56 89 56 19 0 41 -7
48 -15z m5950 -175 c0 -11 -4 -20 -10 -20 -5 0 -10 9 -10 20 0 11 5 20 10 20
6 0 10 -9 10 -20z m-33 -42 c-3 -8 -6 -5 -6 6 -1 11 2 17 5 13 3 -3 4 -12 1
-19z m-77 -140 c0 -16 -3 -19 -11 -11 -6 6 -8 16 -5 22 11 17 16 13 16 -11z
m-114 -216 c-11 -10 -15 4 -8 28 l7 25 3 -23 c2 -13 1 -26 -2 -30z m-89 -158
c6 -18 -21 -44 -36 -35 -10 7 -11 13 -1 30 11 22 31 24 37 5z m573 -399 c0 -9
-6 -12 -15 -9 -8 4 -15 10 -15 15 0 5 7 9 15 9 8 0 15 -7 15 -15z m-3903 -31
c-3 -3 -12 -4 -19 -1 -8 3 -5 6 6 6 11 1 17 -2 13 -5z m3948 -60 c-23 -17 -32
-10 -15 11 7 8 17 12 23 8 6 -4 3 -11 -8 -19z m228 -27 c-3 -5 -10 -4 -15 1
-6 6 -7 16 -3 22 6 9 9 9 16 -1 4 -7 5 -17 2 -22z m-58 13 c4 -6 -14 -10 -47
-9 -39 0 -48 3 -33 9 28 12 73 12 80 0z m-139 -107 c-10 -10 -19 5 -10 18 6
11 8 11 12 0 2 -7 1 -15 -2 -18z m3272 -83 c3 -29 -43 -120 -61 -120 -19 0
-44 21 -31 26 6 3 9 16 6 31 -3 15 3 40 13 60 15 27 24 33 44 31 19 -2 27 -10
29 -28z m-3398 0 c0 -5 -7 -10 -15 -10 -8 0 -15 5 -15 10 0 6 7 10 15 10 8 0
15 -4 15 -10z m3514 -86 c9 -3 16 -14 16 -24 0 -24 -27 -51 -44 -44 -19 7 -28
45 -14 61 12 15 19 16 42 7z m-2717 -146 c-3 -8 -6 -5 -6 6 -1 11 2 17 5 13 3
-3 4 -12 1 -19z m-5657 -158 c0 -11 -7 -20 -15 -20 -17 0 -18 2 -9 24 9 23 24
20 24 -4z m168 -29 c5 -32 -5 -52 -23 -45 -10 4 -12 11 -6 21 5 9 6 25 3 36
-3 14 -1 18 9 15 8 -2 15 -15 17 -27z m-2063 -1 c3 -5 -1 -10 -9 -10 -9 0 -16
5 -16 10 0 6 4 10 9 10 6 0 13 -4 16 -10z m1983 -26 c-4 -23 -26 -30 -34 -10
-8 20 15 51 29 37 5 -5 7 -17 5 -27z m-58 16 c0 -5 -4 -10 -10 -10 -5 0 -10 5
-10 10 0 6 5 10 10 10 6 0 10 -4 10 -10z m-60 -20 c20 -12 9 -21 -18 -13 -12
3 -19 9 -16 14 7 11 15 11 34 -1z m240 0 c0 -5 -4 -10 -10 -10 -5 0 -10 5 -10
10 0 6 5 10 10 10 6 0 10 -4 10 -10z m460 0 c0 -5 -5 -10 -11 -10 -5 0 -7 5
-4 10 3 6 8 10 11 10 2 0 4 -4 4 -10z m-426 -45 c-4 -8 -16 -15 -27 -15 -20 0
-20 0 -1 15 25 19 35 19 28 0z m-84 -15 c0 -5 -11 -10 -24 -10 -19 0 -26 -7
-31 -29 -3 -16 -17 -41 -31 -56 -13 -14 -24 -30 -24 -35 0 -5 -7 -7 -15 -4
-13 5 -12 9 5 24 11 9 20 22 20 28 0 5 7 12 15 16 8 3 15 13 15 22 0 10 7 26
17 36 17 19 53 25 53 8z m-176 -25 c14 -13 26 -28 26 -34 0 -5 6 -12 13 -14 9
-4 9 -8 1 -14 -6 -4 -15 -24 -19 -43 -9 -42 -26 -70 -42 -70 -9 0 -11 10 -6
30 4 22 0 36 -13 52 -14 15 -16 22 -6 25 6 3 12 9 12 15 0 6 -7 8 -15 4 -18
-7 -20 13 -3 49 14 31 18 31 52 0z m69 -10 c4 -8 2 -17 -3 -20 -6 -4 -10 3
-10 14 0 25 6 27 13 6z m177 -35 c-21 -21 -50 -27 -50 -11 0 5 12 14 28 19 40
15 44 14 22 -8z m84 -16 c4 -9 4 -19 2 -22 -10 -9 -36 8 -36 23 0 20 26 19 34
-1z m-174 -18 c0 -8 -4 -18 -10 -21 -5 -3 -10 3 -10 14 0 12 5 21 10 21 6 0
10 -6 10 -14z m5930 -11 c0 -26 -14 -33 -25 -15 -9 14 1 40 15 40 5 0 10 -11
10 -25z m-60 -15 c0 -5 -4 -10 -10 -10 -5 0 -10 5 -10 10 0 6 5 10 10 10 6 0
10 -4 10 -10z m134 1 c3 -5 -2 -12 -11 -15 -14 -6 -13 -9 7 -23 21 -15 24 -15
36 1 8 11 14 13 19 7 3 -6 15 -11 25 -11 10 0 26 -9 34 -21 8 -12 19 -18 24
-15 11 7 9 -34 -2 -52 -12 -19 -25 -14 -19 8 4 15 -2 22 -22 30 -14 5 -27 10
-29 10 -1 0 -3 -16 -4 -35 -2 -19 2 -35 7 -35 17 0 21 -33 7 -55 -8 -12 -28
-25 -45 -28 -28 -6 -31 -10 -31 -42 0 -35 -1 -36 -31 -33 -40 4 -59 29 -39 52
12 15 14 15 31 0 17 -16 19 -16 25 0 4 11 -2 29 -15 46 -11 16 -17 32 -12 35
6 3 14 -2 19 -11 13 -24 75 -10 63 14 -5 9 -15 30 -22 45 -15 32 -43 32 -47
-1 -4 -26 -42 -31 -62 -7 -7 9 -22 14 -33 13 -27 -4 -35 22 -8 29 16 4 19 11
15 28 -5 20 -2 24 23 27 17 2 32 11 38 26 10 22 48 31 59 13z m2194 -16 c-9
-20 -18 -25 -47 -25 l-36 1 28 24 c15 14 37 25 47 25 17 0 18 -3 8 -25z
m-8468 0 c0 -8 -4 -15 -10 -15 -5 0 -10 7 -10 15 0 8 5 15 10 15 6 0 10 -7 10
-15z m242 -54 c-2 -14 2 -21 12 -21 9 0 16 9 16 20 0 23 8 25 34 5 17 -13 16
-16 -22 -54 -22 -23 -44 -41 -48 -41 -4 0 -18 10 -31 22 -20 19 -25 20 -33 8
-16 -25 -11 -39 15 -46 24 -6 37 -44 15 -44 -5 0 -10 4 -10 10 0 5 -15 9 -32
8 -18 -1 -43 1 -55 6 -17 5 -23 3 -23 -7 0 -7 -11 -24 -25 -37 -17 -16 -22
-27 -15 -34 13 -13 13 -26 1 -26 -5 0 -11 8 -13 17 -3 19 -12 12 -41 -31 -13
-17 -14 -17 -46 2 -29 18 -31 21 -15 30 9 5 15 16 12 23 -4 10 8 21 34 34 47
23 46 41 -4 68 -31 16 -38 24 -38 49 0 18 -8 37 -17 44 -16 12 -15 13 15 14
37 0 82 -25 82 -46 0 -9 10 -14 28 -13 23 2 24 2 5 6 -22 4 -31 31 -17 46 8 8
47 -12 57 -29 10 -17 27 -18 27 -3 0 16 27 39 47 39 10 0 24 4 32 9 23 15 56
-3 53 -28z m123 -61 c3 -6 -4 -10 -17 -10 -18 0 -20 2 -8 10 19 12 18 12 25 0z
m-445 -48 c0 -21 -26 -60 -34 -51 -6 6 21 69 30 69 2 0 4 -8 4 -18z m50 -12
c0 -5 -4 -10 -9 -10 -6 0 -13 5 -16 10 -3 6 1 10 9 10 9 0 16 -4 16 -10z
m6193 -70 c-3 -11 -9 -23 -14 -26 -10 -6 -12 39 -3 49 12 12 22 -3 17 -23z
m2175 -22 c19 -19 14 -30 -10 -26 -13 2 -24 11 -26 21 -4 20 18 23 36 5z
m-1991 -20 c-3 -8 -6 -5 -6 6 -1 11 2 17 5 13 3 -3 4 -12 1 -19z m-47 -44 c0
-13 -4 -24 -10 -24 -5 0 -10 14 -10 31 0 17 4 28 10 24 6 -3 10 -17 10 -31z
m-6245 -4 c-3 -5 -10 -10 -16 -10 -5 0 -9 5 -9 10 0 6 7 10 16 10 8 0 12 -4 9
-10z m6320 0 c3 -5 1 -10 -4 -10 -6 0 -11 5 -11 10 0 6 2 10 4 10 3 0 8 -4 11
-10z m75 -20 c0 -5 -5 -10 -11 -10 -5 0 -7 5 -4 10 3 6 8 10 11 10 2 0 4 -4 4
-10z m-6530 -25 c0 -8 -4 -15 -8 -15 -5 0 -9 7 -9 15 0 8 4 15 9 15 4 0 8 -7
8 -15z m3710 -209 c0 -33 -19 -85 -46 -125 -32 -47 -42 -20 -18 51 27 82 64
125 64 74z m367 -178 c-3 -8 -6 -5 -6 6 -1 11 2 17 5 13 3 -3 4 -12 1 -19z
m-2231 -769 c3 -6 1 -16 -5 -22 -9 -9 -14 -8 -21 3 -5 8 -10 18 -10 23 0 11
28 8 36 -4z m88 -78 c-4 -9 -18 -49 -33 -88 -16 -47 -29 -69 -35 -63 -7 7 -6
22 2 43 7 18 12 46 12 61 0 15 8 38 17 50 20 26 48 23 37 -3z m2706 -211 c0
-5 -4 -10 -10 -10 -5 0 -10 5 -10 10 0 6 5 10 10 10 6 0 10 -4 10 -10z m-780
-145 c0 -16 -27 -32 -37 -22 -3 4 -3 13 0 22 8 20 37 20 37 0z"/>
<path d="M5710 10570 c0 -5 5 -10 11 -10 5 0 7 5 4 10 -3 6 -8 10 -11 10 -2 0
-4 -4 -4 -10z"/>
<path d="M5610 10405 c0 -8 7 -15 15 -15 8 0 15 7 15 15 0 8 -7 15 -15 15 -8
0 -15 -7 -15 -15z"/>
<path d="M2765 10310 c-3 -5 -1 -10 4 -10 6 0 11 5 11 10 0 6 -2 10 -4 10 -3
0 -8 -4 -11 -10z"/>
<path d="M3328 10093 c6 -2 18 -2 25 0 6 3 1 5 -13 5 -14 0 -19 -2 -12 -5z"/>
<path d="M3310 10050 c0 -5 7 -10 15 -10 8 0 15 5 15 10 0 6 -7 10 -15 10 -8
0 -15 -4 -15 -10z"/>
<path d="M3344 10005 c25 -19 46 -19 46 0 0 10 -10 15 -32 15 -31 -1 -32 -1
-14 -15z"/>
<path d="M2311 4955 c5 -22 35 -43 46 -31 4 5 2 11 -5 13 -7 3 -20 12 -28 21
-15 14 -16 14 -13 -3z"/>
<path d="M8425 4770 c4 -6 11 -8 16 -5 14 9 11 15 -7 15 -8 0 -12 -5 -9 -10z"/>
<path d="M2333 4766 c-28 -13 -30 -36 -3 -36 11 0 20 7 20 15 0 7 8 19 18 24
24 15 -6 12 -35 -3z"/>
<path d="M2246 4678 c-9 -12 -16 -32 -16 -43 1 -19 1 -19 14 -2 7 9 18 17 25
17 6 0 11 11 11 25 0 31 -14 32 -34 3z"/>
<path d="M6265 10788 c57 -11 434 -11 665 1 122 6 61 8 -280 8 -312 1 -421 -2
-385 -9z"/>
<path d="M8708 10793 c18 -2 45 -2 60 0 15 2 0 4 -33 4 -33 0 -45 -2 -27 -4z"/>
<path d="M8858 10793 c7 -3 16 -2 19 1 4 3 -2 6 -13 5 -11 0 -14 -3 -6 -6z"/>
<path d="M2255 10749 c-33 -3 36 -6 154 -7 118 -1 212 0 209 3 -7 7 -295 11
-363 4z"/>
<path d="M1472 10743 c48 -2 129 -2 180 0 51 1 12 3 -87 3 -99 0 -141 -2 -93
-3z"/>
<path d="M1933 10743 c9 -2 23 -2 30 0 6 3 -1 5 -18 5 -16 0 -22 -2 -12 -5z"/>
<path d="M2088 10743 c6 -2 18 -2 25 0 6 3 1 5 -13 5 -14 0 -19 -2 -12 -5z"/>
<path d="M8617 10743 c18 -2 50 -2 70 0 21 2 7 4 -32 4 -38 0 -55 -2 -38 -4z"/>
<path d="M2620 10710 c-392 -6 -365 -9 170 -15 228 -3 408 -1 425 4 30 9 14
10 -210 15 -27 1 -201 -1 -385 -4z"/>
<path d="M3480 10710 c-124 -3 -209 -8 -190 -12 58 -10 743 -9 760 2 13 8 12
10 -5 10 -204 4 -382 4 -565 0z"/>
<path d="M4118 10709 c-6 -4 -6 -9 -2 -12 12 -7 142 -3 149 5 9 8 -134 15
-147 7z"/>
<path d="M1373 10703 c15 -2 37 -2 50 0 12 2 0 4 -28 4 -27 0 -38 -2 -22 -4z"/>
<path d="M1518 10703 c18 -2 45 -2 60 0 15 2 0 4 -33 4 -33 0 -45 -2 -27 -4z"/>
<path d="M1673 10703 c9 -2 23 -2 30 0 6 3 -1 5 -18 5 -16 0 -22 -2 -12 -5z"/>
<path d="M1798 10703 c18 -2 45 -2 60 0 15 2 0 4 -33 4 -33 0 -45 -2 -27 -4z"/>
<path d="M2188 10703 c18 -2 45 -2 60 0 15 2 0 4 -33 4 -33 0 -45 -2 -27 -4z"/>
<path d="M2837 10670 c-26 -5 -138 -7 -247 -6 -110 2 -205 -1 -212 -5 -15 -10
497 -16 697 -8 83 3 148 6 145 8 -22 11 -331 20 -383 11z"/>
<path d="M3643 10672 c-6 -4 -97 -6 -202 -6 -105 1 -194 -2 -197 -7 -3 -5 194
-9 460 -9 256 0 466 3 466 8 0 4 -28 7 -62 8 -35 1 -125 4 -200 8 -95 5 -138
4 -138 -3 0 -6 -11 -11 -25 -11 -14 0 -25 5 -25 10 0 12 -59 13 -77 2z"/>
<path d="M6449 10664 l-24 -13 28 -1 c36 -2 71 -2 405 0 158 1 271 6 250 9
-20 4 -103 6 -184 5 -81 -2 -152 0 -157 3 -4 3 -73 6 -151 8 -105 2 -149 -1
-167 -11z"/>
<path d="M1513 10653 c42 -2 112 -2 155 0 42 1 7 3 -78 3 -85 0 -120 -2 -77
-3z"/>
<path d="M1833 10653 c26 -2 68 -2 95 0 26 2 4 3 -48 3 -52 0 -74 -1 -47 -3z"/>
<path d="M2018 10653 c12 -2 32 -2 45 0 12 2 2 4 -23 4 -25 0 -35 -2 -22 -4z"/>
<path d="M2228 10653 c23 -2 59 -2 80 0 20 2 1 4 -43 4 -44 0 -61 -2 -37 -4z"/>
<path d="M7538 10653 c6 -2 18 -2 25 0 6 3 1 5 -13 5 -14 0 -19 -2 -12 -5z"/>
<path d="M3617 10632 c-304 -2 -388 -5 -384 -15 3 -9 92 -13 383 -15 373 -2
424 0 424 17 0 15 -28 16 -423 13z"/>
<path d="M1490 10620 c-10 -7 17 -10 85 -10 55 0 107 5 115 10 10 7 -17 10
-85 10 -55 0 -107 -5 -115 -10z"/>
<path d="M1730 10621 l-25 -7 25 -6 c14 -3 50 -4 80 -1 30 2 73 4 95 3 22 -1
37 2 33 5 -9 10 -179 14 -208 6z"/>
<path d="M2175 10620 c-4 -6 4 -10 17 -10 535 -6 842 -3 845 7 6 16 -853 18
-862 3z"/>
<path d="M3060 10620 c0 -5 16 -12 35 -16 43 -8 128 4 120 17 -8 12 -155 12
-155 -1z"/>
<path d="M4092 10621 c-10 -6 -4 -10 18 -15 46 -9 50 -8 50 9 0 17 -46 21 -68
6z"/>
<path d="M4415 10620 c-10 -16 11 -19 158 -19 119 0 147 3 147 14 0 11 -28 14
-150 14 -82 0 -152 -4 -155 -9z"/>
<path d="M6880 10621 c0 -11 150 -20 175 -10 24 9 22 10 -87 15 -49 2 -88 0
-88 -5z"/>
<path d="M7100 10620 c-13 -8 -12 -10 3 -10 9 0 17 5 17 10 0 12 -1 12 -20 0z"/>
<path d="M1880 10581 c-61 -4 -97 -9 -85 -13 46 -17 205 -7 205 13 0 5 -3 8
-7 7 -5 -1 -55 -4 -113 -7z"/>
<path d="M2090 10582 c-104 -5 -97 -22 8 -22 51 0 92 4 92 9 0 13 -27 16 -100
13z"/>
<path d="M2230 10582 c-6 -2 -10 -8 -10 -13 0 -10 115 -7 125 3 7 6 -99 15
-115 10z"/>
<path d="M2403 10582 c-18 -2 -33 -7 -33 -13 0 -10 25 -12 115 -8 33 1 67 2
75 1 54 -2 360 -5 485 -4 83 1 337 1 565 2 509 2 483 1 470 14 -15 15 -400 19
-417 5 -7 -6 -18 -7 -25 -2 -12 7 -1160 12 -1235 5z"/>
<path d="M1440 10570 c0 -11 288 -11 295 0 4 7 -46 10 -144 9 -83 -1 -151 -5
-151 -9z"/>
<path d="M7485 10570 c-16 -7 -12 -9 18 -9 23 -1 36 3 32 9 -7 12 -23 12 -50
0z"/>
<path d="M7560 10570 c0 -5 14 -10 30 -10 17 0 30 5 30 10 0 6 -13 10 -30 10
-16 0 -30 -4 -30 -10z"/>
<path d="M558 10533 c7 -3 16 -2 19 1 4 3 -2 6 -13 5 -11 0 -14 -3 -6 -6z"/>
<path d="M1068 10533 c12 -2 32 -2 45 0 12 2 2 4 -23 4 -25 0 -35 -2 -22 -4z"/>
<path d="M7343 10534 c8 -9 293 -11 314 -2 10 3 -58 7 -151 7 -93 1 -167 -2
-163 -5z"/>
<path d="M7360 10489 c0 -5 15 -9 33 -9 60 0 137 -13 131 -22 -3 -4 -41 -8
-86 -7 -47 1 -84 -3 -91 -10 -8 -8 35 -11 165 -11 99 0 179 4 183 9 3 5 -9 11
-27 13 -37 3 -41 20 -6 29 20 5 19 6 -12 12 -52 10 -290 7 -290 -4z"/>
<path d="M13 10483 c9 -2 25 -2 35 0 9 3 1 5 -18 5 -19 0 -27 -2 -17 -5z"/>
<path d="M93 10483 c9 -2 23 -2 30 0 6 3 -1 5 -18 5 -16 0 -22 -2 -12 -5z"/>
<path d="M258 10483 c7 -3 16 -2 19 1 4 3 -2 6 -13 5 -11 0 -14 -3 -6 -6z"/>
<path d="M573 10483 c9 -2 23 -2 30 0 6 3 -1 5 -18 5 -16 0 -22 -2 -12 -5z"/>
<path d="M722 10483 c37 -2 100 -2 140 0 40 1 10 3 -67 3 -77 0 -110 -1 -73
-3z"/>
<path d="M50 10440 c0 -5 9 -10 20 -10 11 0 20 5 20 10 0 6 -9 10 -20 10 -11
0 -20 -4 -20 -10z"/>
<path d="M168 10443 c6 -2 18 -2 25 0 6 3 1 5 -13 5 -14 0 -19 -2 -12 -5z"/>
<path d="M521 10446 c2 -2 84 -7 182 -11 125 -5 177 -4 177 4 0 8 -57 11 -182
11 -100 0 -179 -2 -177 -4z"/>
<path d="M7725 10440 c4 -6 11 -8 16 -5 14 9 11 15 -7 15 -8 0 -12 -5 -9 -10z"/>
<path d="M90 10400 c-34 -7 -34 -7 12 -9 26 0 50 4 53 9 7 11 -12 11 -65 0z"/>
<path d="M8 10393 c7 -3 16 -2 19 1 4 3 -2 6 -13 5 -11 0 -14 -3 -6 -6z"/>
<path d="M218 10393 c7 -3 16 -2 19 1 4 3 -2 6 -13 5 -11 0 -14 -3 -6 -6z"/>
<path d="M308 10393 c7 -3 16 -2 19 1 4 3 -2 6 -13 5 -11 0 -14 -3 -6 -6z"/>
<path d="M358 10393 c6 -2 18 -2 25 0 6 3 1 5 -13 5 -14 0 -19 -2 -12 -5z"/>
<path d="M7723 10393 c9 -2 25 -2 35 0 9 3 1 5 -18 5 -19 0 -27 -2 -17 -5z"/>
<path d="M7947 10393 c18 -2 50 -2 70 0 21 2 7 4 -32 4 -38 0 -55 -2 -38 -4z"/>
<path d="M303 10353 c9 -2 23 -2 30 0 6 3 -1 5 -18 5 -16 0 -22 -2 -12 -5z"/>
<path d="M358 10353 c6 -2 18 -2 25 0 6 3 1 5 -13 5 -14 0 -19 -2 -12 -5z"/>
<path d="M7923 10353 c9 -2 23 -2 30 0 6 3 -1 5 -18 5 -16 0 -22 -2 -12 -5z"/>
<path d="M7720 10310 c0 -5 6 -10 14 -10 8 0 18 5 21 10 3 6 -3 10 -14 10 -12
0 -21 -4 -21 -10z"/>
<path d="M7910 10308 c0 -6 51 -8 129 -7 72 2 127 7 125 11 -7 12 -254 8 -254
-4z"/>
<path d="M7885 10271 c-43 -10 211 -24 280 -16 30 4 52 11 49 16 -6 10 -284
10 -329 0z"/>
</g>
</svg>
